<svg width="50" height="50" viewBox="0 0 50 50" fill="none" xmlns="http://www.w3.org/2000/svg">
<g clip-path="url(#clip0_270_661)">
<g opacity="0.2">
<path opacity="0.3" d="M34.375 12.5C36.2881 12.4997 38.1247 13.2514 39.4887 14.5928C40.8527 15.9342 41.6349 17.758 41.6667 19.6708C41.8542 21.4729 41.8271 24.1312 40.6083 27.2C39.3625 30.3375 36.9333 33.7583 32.5 37.0833C32.2811 37.2475 32.0321 37.3669 31.767 37.4348C31.502 37.5027 31.2262 37.5178 30.9554 37.4791C30.4084 37.4009 29.9148 37.1087 29.5833 36.6667C29.2518 36.2246 29.1095 35.669 29.1876 35.122C29.2657 34.5751 29.558 34.0815 30 33.75C33.2583 31.3063 35.125 28.9312 36.1937 26.8542C35.1917 27.1115 34.1464 27.1526 33.1273 26.9749C32.1082 26.7972 31.1385 26.4046 30.2828 25.8233C29.427 25.242 28.7048 24.4853 28.164 23.6033C27.6232 22.7214 27.2763 21.7345 27.1462 20.7082C27.0162 19.6819 27.106 18.6397 27.4098 17.6508C27.7135 16.6618 28.2242 15.7489 28.9079 14.9725C29.5916 14.1961 30.4327 13.5742 31.3753 13.1479C32.3179 12.7216 33.3405 12.5007 34.375 12.5ZM15.625 12.5C17.5381 12.4997 19.3747 13.2514 20.7387 14.5928C22.1027 15.9342 22.8849 17.758 22.9167 19.6708C23.1042 21.4729 23.0771 24.1312 21.8583 27.2C20.6146 30.3375 18.1833 33.7583 13.75 37.0833C13.5311 37.2475 13.2821 37.3669 13.017 37.4348C12.752 37.5027 12.4762 37.5178 12.2054 37.4791C11.6584 37.4009 11.1648 37.1087 10.8333 36.6667C10.5018 36.2246 10.3595 35.669 10.4376 35.122C10.5157 34.5751 10.808 34.0815 11.25 33.75C14.5083 31.3063 16.375 28.9312 17.4437 26.8542C16.4417 27.1115 15.3964 27.1526 14.3773 26.9749C13.3582 26.7972 12.3885 26.4046 11.5328 25.8233C10.677 25.242 9.95477 24.4853 9.41398 23.6033C8.87319 22.7214 8.52625 21.7345 8.39622 20.7082C8.26618 19.6819 8.35601 18.6397 8.65976 17.6508C8.9635 16.6618 9.4742 15.7489 10.1579 14.9725C10.8416 14.1961 11.6827 13.5742 12.6253 13.1479C13.5679 12.7216 14.5905 12.5007 15.625 12.5Z" fill="#030403"/>
</g>
</g>
<defs>
<clipPath id="clip0_270_661">
<rect width="50" height="50" fill="white"/>
</clipPath>
</defs>
</svg>
