<svg width="80" height="80" viewBox="0 0 80 80" fill="none" xmlns="http://www.w3.org/2000/svg">
<path d="M38.8373 12.4988L38.2646 13.066V20.2445V27.423L38.8373 27.9902C39.7397 28.9095 41.2321 28.6748 41.7527 27.5599C42.0824 26.8362 42.1171 13.8093 41.7874 13.0073C41.3189 11.8337 39.7571 11.5794 38.8373 12.4988Z" fill="black"/>
<path d="M24.6768 14.8654C24.3645 15.0806 24.0348 15.4914 23.9306 15.8043C23.4621 17.1539 24.7289 24.2151 26.2213 28.5965C26.9675 30.7481 27.8525 31.3349 29.2408 30.6112C30.3168 30.0244 30.4556 28.8312 29.692 26.6014C28.9979 24.5867 28.3558 21.7505 27.8525 18.4058C27.6269 16.8605 27.3319 15.4718 27.2278 15.3153C26.9154 14.9046 26.1172 14.4742 25.6486 14.4742C25.423 14.4742 24.9892 14.6503 24.6768 14.8654Z" fill="black"/>
<path d="M53.2755 15.3937C52.7896 15.8827 52.7202 16.137 52.4773 17.9952C52.0955 21.0074 51.4707 23.9023 50.7592 26.1126C50.3948 27.1884 50.0825 28.4402 50.0304 28.8901C49.9436 29.6529 49.9957 29.7898 50.551 30.4157C51.0196 30.9439 51.2972 31.1003 51.7831 31.1003C52.6161 31.1003 53.2582 30.7287 53.5532 30.0832C54.7332 27.5209 56.3992 19.8925 56.3992 17.0759C56.3992 16.1566 56.3297 15.9219 55.8959 15.4329C55.1844 14.6505 54.0391 14.6309 53.2755 15.3937Z" fill="black"/>
<path d="M12.217 22.4744C11.5922 22.7873 11.1063 23.648 11.1063 24.4695C11.1063 25.7996 12.7029 30.6113 13.9176 32.9194C15.3232 35.6186 16.538 37.2812 17.3016 37.5746C18.5857 38.0441 19.7831 37.0661 19.7831 35.5208C19.7831 34.8167 19.6443 34.5037 18.8634 33.3888C17.2842 31.159 15.7744 27.6969 15.0109 24.5086C14.8373 23.8436 14.525 23.1199 14.3167 22.8851C13.8655 22.4157 12.7896 22.2005 12.217 22.4744Z" fill="black"/>
<path d="M66.5511 22.7678C65.7875 23.1394 65.5272 23.5893 65.076 25.3301C64.2083 28.577 62.8374 31.6675 61.3103 33.78C60.7203 34.6015 60.4947 35.0905 60.4253 35.7164C60.3558 36.4792 60.4079 36.6357 60.9632 37.2616C61.8135 38.2201 62.7159 38.2201 63.6704 37.2616C65.5099 35.3839 67.8699 30.3766 68.8938 26.1907C69.2235 24.7824 69.2409 24.6259 68.9806 23.9218C68.5641 22.7678 67.5402 22.2788 66.5511 22.7678Z" fill="black"/>
<path d="M36.1822 30.6113C29.3102 31.824 21.8655 36.3814 15.5141 43.2861C12.1649 46.9047 12.1649 47.1785 15.41 50.8166C17.7007 53.3594 21.3623 56.5281 24.2256 58.445C31.1844 63.1003 37.9176 64.7824 44.4252 63.4915C51.3145 62.1223 58.4642 57.6626 64.9198 50.6993C67.0542 48.4108 67.4707 47.6479 67.1757 46.5526C66.8981 45.5159 64.0347 42.2885 60.9978 39.6088C55.6529 34.8753 49.7874 31.7262 44.4599 30.6895C42.1692 30.2592 38.3861 30.2201 36.1822 30.6113ZM44.5987 35.11C50.013 36.4401 55.8785 40.1369 61.2234 45.5355L62.6638 47.0025L61.8308 47.9609C59.5922 50.5624 55.115 54.1809 51.731 56.1174C45.7961 59.5208 40.295 60.3814 34.7072 58.7775C29.3796 57.2518 23.6529 53.4963 18.6551 48.2347L17.6139 47.1394L19.089 45.555C24.1735 40.0783 30.5597 36.1858 36.5293 34.9144C38.3167 34.5428 42.7419 34.6602 44.5987 35.11Z" fill="black"/>
<ellipse cx="40.0868" cy="47.7262" rx="8.50325" ry="9.58435" fill="#1AD079"/>
</svg>
