<svg width="13" height="14" viewBox="0 0 13 14" fill="none" xmlns="http://www.w3.org/2000/svg">
<path d="M5.91727 0.606575C5.00997 0.765589 3.67289 1.24263 2.9566 1.67992C-0.863624 3.98562 -0.911377 10.3462 2.90885 12.4133C5.583 13.8842 12.1729 13.9637 12.1729 12.5326C12.1729 10.9822 11.7431 10.7835 9.06896 10.9027C6.82458 11.022 6.34705 10.9027 5.29649 10.0679C3.14761 8.27899 3.09986 6.1323 5.05772 4.06512C6.06053 3.03154 6.2993 2.95203 8.87795 3.11104C11.5044 3.27005 11.6476 3.2303 11.8386 2.27622C11.9819 1.71967 11.9341 1.12337 11.7909 1.00411C11.2178 0.527068 7.68413 0.3283 5.91727 0.606575Z" fill="white"/>
</svg>
