<svg width="17" height="14" viewBox="0 0 17 14" fill="none" xmlns="http://www.w3.org/2000/svg">
<path d="M4.35548 4.9397C3.25717 7.28516 1.92009 10.1474 1.39481 11.2605L0.391998 13.3674H2.25436C3.97346 13.3674 4.21222 13.2482 4.7375 11.9761C5.35829 10.5847 5.40604 10.5847 8.12795 10.5847C10.8499 10.5847 10.8976 10.6244 11.5662 11.9761C12.2347 13.2482 12.4257 13.3674 14.2881 13.3674C15.6729 13.3674 16.1982 13.2084 16.0072 12.8506C15.8639 12.6121 14.5268 9.74987 12.9987 6.49009L10.2768 0.646334H8.31896H6.3611L4.35548 4.9397ZM9.46503 7.08639C9.84705 8.15973 9.7993 8.19949 8.22346 8.19949C7.31616 8.19949 6.59986 8.15973 6.59986 8.08023C6.59986 8.00072 6.93413 7.08639 7.41166 6.01305C8.27121 3.90612 8.31896 3.94587 9.46503 7.08639Z" fill="white"/>
</svg>
