<svg width="16" height="14" viewBox="0 0 16 14" fill="none" xmlns="http://www.w3.org/2000/svg">
<path d="M3.32738 6.60935C1.84704 9.86913 0.605469 12.7314 0.605469 12.9699C0.605469 13.1687 1.36951 13.3674 2.27682 13.3674C3.7094 13.3674 4.04367 13.2084 4.6167 11.9761C5.333 10.6244 5.38075 10.5847 8.15041 10.5847C10.9201 10.5847 10.9678 10.6244 11.3976 11.8568C11.8274 13.0494 12.0661 13.1687 13.8807 13.2879C14.9791 13.3674 15.8864 13.3674 15.8864 13.2879C15.8864 13.2084 14.7881 10.8232 13.451 8.00072C12.1139 5.13847 10.8246 2.35573 10.5381 1.71968C10.1083 0.805347 9.82176 0.646334 8.05491 0.646334H6.09704L3.32738 6.60935ZM9.39199 7.28516C9.72626 8.11998 9.583 8.19949 8.00715 8.19949C6.81333 8.19949 6.33581 8.04047 6.52682 7.68269C6.62232 7.44417 7.00434 6.49009 7.33861 5.65527L7.9594 4.10488L8.53243 5.25773C8.81895 5.89379 9.24873 6.80812 9.39199 7.28516Z" fill="white"/>
</svg>
