<svg width="16" height="16" viewBox="0 0 16 16" fill="none" xmlns="http://www.w3.org/2000/svg">
<path d="M5.47474 1.29688C5.33148 1.76562 4.04216 5.04688 2.60957 8.60938C1.22474 12.1719 0.0786743 15.1719 0.0786743 15.3125C0.0786743 15.4062 0.842719 15.5 1.75002 15.5C3.18261 15.5 3.51688 15.3125 4.08991 13.8594C4.8062 12.2656 4.85396 12.2188 7.67137 12.2188C10.4888 12.2188 10.5365 12.2188 11.0618 13.8594C11.5871 15.3594 11.7781 15.5 13.4972 15.5C14.5 15.5 15.3596 15.4531 15.3596 15.3594C15.3596 15.3125 14.5 13.0625 13.4017 10.3438C12.3511 7.625 11.0618 4.29688 10.5365 2.9375C9.58148 0.546875 9.53373 0.5 7.67137 0.5C6.28654 0.5 5.71351 0.734375 5.47474 1.29688ZM8.67418 7.20312C9.34272 9.3125 9.24721 9.5 7.3371 9.3125L5.90452 9.17188L6.66856 6.92188C7.48036 4.48438 7.76688 4.53125 8.67418 7.20312Z" fill="#1AD079"/>
</svg>
