<svg width="81" height="80" viewBox="0 0 81 80" fill="none" xmlns="http://www.w3.org/2000/svg">
<path d="M16.3281 4.95309C15.4063 5.26559 14.4688 6.35934 14.2656 7.35934C14.0312 8.45309 14.0312 71.5468 14.2656 72.6406C14.375 73.1718 14.625 73.6406 15.0469 74.1093C16.1719 75.4062 14.1719 75.3125 40.5 75.3125C66.8281 75.3125 64.8281 75.4062 65.9531 74.1093C66.375 73.6406 66.625 73.1718 66.7344 72.6406C67 71.4375 66.9688 16.4531 66.7031 15.9531C66.6094 15.7343 63.9688 13.125 60.8438 10.125L55.1875 4.68747L36.0781 4.70309C19.5313 4.70309 16.8906 4.74997 16.3281 4.95309ZM53.3125 11.0468C53.3125 13.2812 53.3906 15.0156 53.4844 15.3906C53.7188 16.2187 54.9063 17.4062 55.7344 17.6406C56.1094 17.75 57.9063 17.8125 60.3125 17.8125H64.25L64.2188 45.0156C64.1719 71.7343 64.1719 72.2187 63.875 72.4375C63.4063 72.7656 17.5938 72.7656 17.125 72.4375C16.8281 72.2187 16.8281 71.7031 16.8281 40C16.8281 8.29684 16.8281 7.78122 17.125 7.56247C17.3906 7.37497 20.125 7.34372 35.375 7.34372H53.3125V11.0468ZM62 15.0156C62.0469 15.0937 60.8125 15.1562 59.2656 15.1562C56.9219 15.1562 56.4219 15.1093 56.2188 14.9062C56.0156 14.7031 55.9688 14.2031 55.9688 11.9218V9.18747L58.9375 12.0312C60.5781 13.6093 61.9531 14.9531 62 15.0156Z" fill="black"/>
<path d="M21.9844 25.7656C20.9844 26.1719 20.9062 27.6719 21.8437 28.1094C22.125 28.2344 24.9375 28.2812 31.4531 28.2812H40.6719L41.0469 27.8906C41.5312 27.4219 41.5625 26.5938 41.1406 26.0781L40.8437 25.7031L31.5625 25.6719C26.4687 25.6562 22.1562 25.7031 21.9844 25.7656Z" fill="#1AD079"/>
<path d="M21.7813 33.5468C21.4375 33.6874 21.0938 34.5312 21.2032 35.0156C21.4219 35.9999 20.125 35.9374 41.0001 35.9374C59.8282 35.9374 60.0313 35.9374 60.3438 35.6249C60.5469 35.4218 60.6563 35.1093 60.6563 34.6874C60.6563 34.2656 60.5469 33.9531 60.3438 33.7499C60.0313 33.4374 59.8282 33.4374 41.0157 33.4531C30.5469 33.4531 21.8907 33.4999 21.7813 33.5468Z" fill="black"/>
<path d="M21.7969 41.2812C20.9688 41.6719 21.0156 43.1875 21.8438 43.5781C22.125 43.7031 27.4063 43.75 41.0625 43.75H59.8906L60.2656 43.3594C60.75 42.8906 60.7813 42.0625 60.3594 41.5469L60.0625 41.1719L41.0938 41.1406C27.8125 41.125 22.0313 41.1562 21.7969 41.2812Z" fill="black"/>
<path d="M21.5781 49.2031C21.2969 49.4219 21.2031 49.6562 21.2031 50.1562C21.2031 50.6562 21.2969 50.8906 21.5781 51.1094C21.9219 51.3906 22.5312 51.4062 40.9219 51.4062C53 51.4062 60 51.3438 60.1875 51.25C60.8594 50.8906 60.8594 49.4219 60.1875 49.0625C60 48.9688 53 48.9062 40.9219 48.9062C22.5312 48.9062 21.9219 48.9219 21.5781 49.2031Z" fill="black"/>
<path d="M21.7969 56.75C21.0312 57.125 20.9844 58.3281 21.7187 58.9062C22.1094 59.2187 22.3125 59.2187 31.4844 59.1875L40.8438 59.1406L41.1406 58.7656C41.5625 58.25 41.5312 57.4218 41.0469 56.9531L40.6719 56.5625L31.4062 56.5781C25.25 56.5781 22.0312 56.6406 21.7969 56.75Z" fill="black"/>
</svg>
