<svg width="81" height="80" viewBox="0 0 81 80" fill="none" xmlns="http://www.w3.org/2000/svg">
<path d="M45.055 7.51091C45.0713 11.6071 45.0469 19.4388 45.006 24.9298C44.9734 30.4207 44.9407 34.9177 44.9489 34.9338C44.9816 34.9819 78.4101 35.046 79.3897 34.9899L80.5244 34.9338L80.4673 33.5871C80.2795 28.8496 79.3081 24.4488 77.5611 20.4488C73.3571 10.7895 65.0142 3.83155 54.4999 1.20229C51.7571 0.512917 48.4428 0.0800514 45.9775 0.0800514H45.0305L45.055 7.51091Z" fill="#1AD079"/>
<path d="M35.9694 4.4168C31.1938 4.78554 26.353 6.10017 22.051 8.18434C17.9367 10.1723 14.6959 12.4889 11.4387 15.7595C5.32446 21.8918 1.65916 29.5952 0.687729 38.3166C0.483648 40.1683 0.483648 44.0801 0.687729 45.9318C1.57753 53.9479 4.76936 61.1302 10.0918 67.0942C11.2836 68.4248 13.4877 70.493 14.8918 71.5992C20.7122 76.1683 27.2592 78.8457 34.8265 79.7354C36.5571 79.9358 41.5694 79.9358 43.2347 79.7354C45.7326 79.4308 47.9285 78.99 49.9694 78.3887C61.7734 74.9258 71.1204 66.2364 75.3 54.8296C76.9571 50.3326 77.7408 45.1142 77.4877 40.3767C77.4306 39.3988 77.3653 38.4449 77.3408 38.2605L77.2918 37.9158L59.651 37.8998L42.0102 37.8757L41.9857 21.1543L41.9694 4.43284L41.0959 4.38474C39.9449 4.31259 37.0959 4.33664 35.9694 4.4168ZM39.0306 24.0881V40.9619H56.6959H74.3612L74.4428 40.537C74.5816 39.7996 74.5571 43.9519 74.4183 45.4188C73.2428 57.5952 65.6673 68.2725 54.4183 73.5952C44.6224 78.2284 33.1041 78.1803 23.3979 73.4749C9.17752 66.5891 1.34895 51.5831 3.96936 36.2645C6.47548 21.6673 18.2469 10.1403 33.1367 7.70338C34.3775 7.50298 35.1285 7.4148 37.0306 7.27051C37.2102 7.25448 37.7326 7.23845 38.1979 7.23043L39.0306 7.2144V24.0881Z" fill="black"/>
</svg>
